<svg xmlns="http://www.w3.org/2000/svg" xmlns:xlink="http://www.w3.org/1999/xlink" width="46.879" height="46.879" viewBox="0 0 46.879 46.879"><defs><clipPath id="a"><circle cx="23.44" cy="23.44" r="23.44" transform="translate(273 20)" fill="#fff"/></clipPath></defs><g transform="translate(-273 -20)" clip-path="url(#a)"><g transform="translate(276.882 20)"><g transform="translate(14.815 25.527)"><path d="M30.234,45.559H27.909a3.579,3.579,0,0,1-3.58-3.58V36.8a3.579,3.579,0,0,1,3.58-3.58h2.326a3.579,3.579,0,0,1,3.58,3.58v5.182A3.579,3.579,0,0,1,30.234,45.559Z" transform="translate(-24.329 -33.216)" fill="#edbb98"/></g><g transform="translate(0 34.207)"><path d="M29.352,44.511v.082a3.579,3.579,0,0,1-3.58,3.58H23.446a3.579,3.579,0,0,1-3.58-3.58v-.082C12.413,46.122,6.608,51.085,5.052,57.146c-.018.082,9.87,0,19.557,0s19.585.082,19.557,0C42.61,51.085,36.8,46.122,29.352,44.511Z" transform="translate(-5.052 -44.511)" fill="#2b00ff"/></g><g transform="translate(28.068 15.556)"><path d="M2.628,0C4.079,0,5.256,1.623,5.256,3.626S4.079,7.252,2.628,7.252,0,5.628,0,3.626,1.177,0,2.628,0Z" transform="translate(1.54 0) rotate(12.263)" fill="#f4c5a2"/></g><g transform="translate(4.825 15.793)"><path d="M2.628,0C4.079,0,5.256,1.623,5.256,3.626S4.079,7.252,2.628,7.252,0,5.628,0,3.626,1.177,0,2.628,0Z" transform="translate(6.676 7.086) rotate(167.737)" fill="#f4c5a2"/></g><g transform="translate(8.534 6.272)"><ellipse cx="11.28" cy="13.157" rx="11.28" ry="13.157" fill="#f4c5a2"/></g><g transform="translate(5.028)"><path d="M26.38,8.845A10.541,10.541,0,0,0,34.593,14.2s1.639,3.47.76,5.219l1.987-3.113a2.8,2.8,0,0,1,2.738.769S42.44,6.473,35.023,2.3a10.754,10.754,0,0,1,1.492-.87,11.455,11.455,0,0,0-2.674.494V0L32.533,1.621S24.7-2.793,15.658,3.25c0,0-6.272,5.109-3.232,14.421a2,2,0,0,1,2.921-.952A18.326,18.326,0,0,0,17.38,19.9s-1.355-5.127,1.2-8.24c0,0,.284,2.207,1.639,2.555a5.471,5.471,0,0,1,.348-4.258s.906,4.871,4.981,4.944C25.565,14.888,22.727,10.722,26.38,8.845Z" transform="translate(-11.594)" fill="#3f2820"/></g><g transform="translate(20.784 14.174)"><path d="M35.814,25.878a3.717,3.717,0,1,1,3.717-3.717A3.72,3.72,0,0,1,35.814,25.878Zm0-6.913a3.2,3.2,0,1,0,3.2,3.2A3.2,3.2,0,0,0,35.814,18.965Z" transform="translate(-32.096 -18.443)" fill="#1a1a1a"/></g><g transform="translate(11.299 14.174)"><path d="M23.471,25.878a3.717,3.717,0,1,1,3.717-3.717A3.72,3.72,0,0,1,23.471,25.878Zm0-6.913a3.2,3.2,0,1,0,3.2,3.2A3.2,3.2,0,0,0,23.471,18.965Z" transform="translate(-19.754 -18.443)" fill="#1a1a1a"/></g><g transform="translate(18.221 16.829)"><path d="M29.685,22.447c-.852,0-.87-.055-.925-.2l.092-.293.32.412-.156-.2.009-.055c-.027-.119.11-.183.055-.192.174.027,1.621.009,2.6-.018l.009.522C30.738,22.438,30.106,22.447,29.685,22.447Z" transform="translate(-28.761 -21.898)" fill="#1a1a1a"/></g><g transform="translate(27.18 15.611)"><path d="M0,0H3.241V.522H0Z" transform="translate(0.201 0) rotate(22.662)" fill="#1a1a1a"/></g><g transform="translate(8.941 15.546)"><path d="M0,0H.522V3.534H0Z" transform="matrix(0.404, 0.915, -0.915, 0.404, 3.232, 0)" fill="#1a1a1a"/></g></g></g></svg>